# xmcd CD database file
#
# Track frame offsets:
#	151
#	12524
#	25646
#	39101
#	50164
#	62211
#	79691
#	94319
#	107909
#	118104
#	128944
#	139841
#	153741
#	167694
#	177429
#	192634
#	203949
#	217309
#	230409
#	244246
#	254982
#	267263
#	280821
#	295246
#	307583
#	322070
#
# Disc length: 4469 seconds
#
# Revision: 0
# Processed by: cddbd v1.5.2PL0 Copyright (c) Steve Scherf et al.
# Submitted via: CDex 1.82
#
DISCID=9711731a
DTITLE=Tammy Wynette - Tears of Fire Vol.2
DYEAR=1900
DGENRE=Country
TTITLE0=Till I Get It Right
TTITLE1=My Man (Understands)
TTITLE2=We're Gonna Hold On
TTITLE3=(We're not) The Jet Set
TTITLE4=Another Lonely Song
TTITLE5=I Don't Think About
TTITLE6=No Charge
TTITLE7=Woman To Woman
TTITLE8=This Time I Almost Made It
TTITLE9=Near You
TTITLE10=I Still Believe In Fairy Tales
TTITLE11='Til I Can Make It On My Own
TTITLE12=Golden Ring
TTITLE13=Did You Ever
TTITLE14=You And Me
TTITLE15=Let's Get Together
TTITLE16=One Of A Kind
TTITLE17=Southern California
TTITLE18=Dear Daughters
TTITLE19=They Call It Making Love
TTITLE20=Two Story House
TTITLE21=Cowboys Don't Soot Straight
TTITLE22=Crying In The Rain
TTITLE23=Another Chance
TTITLE24=You Still Get To Me In My Dreams
TTITLE25=We're Strangers Again
EXTD=
EXTT0=
EXTT1=
EXTT2=
EXTT3=
EXTT4=
EXTT5=
EXTT6=
EXTT7=
EXTT8=
EXTT9=
EXTT10=
EXTT11=
EXTT12=
EXTT13=
EXTT14=
EXTT15=
EXTT16=
EXTT17=
EXTT18=
EXTT19=
EXTT20=
EXTT21=
EXTT22=
EXTT23=
EXTT24=
EXTT25=
PLAYORDER=
